<svg xmlns="http://www.w3.org/2000/svg" width="540" height="220" viewBox="0 0 540 220" role="img" aria-labelledby="env1">
  <title id="env1">Esquema orientativo: detector de envolvente AM con diodo y filtro RC</title>
  <rect width="540" height="220" fill="#0f1419" rx="10"/>
  <text x="270" y="26" text-anchor="middle" fill="#e8ecf4" font-size="14" font-family="system-ui,sans-serif">Circuito orientativo (AM a la entrada)</text>
  <text x="52" y="118" text-anchor="middle" fill="#9aa3b5" font-size="12" font-family="system-ui,sans-serif">AM</text>
  <path d="M 30 100 Q 40 80 50 100 Q 60 120 70 100" fill="none" stroke="#7eb6ff" stroke-width="2"/>
  <line x1="75" y1="100" x2="115" y2="100" stroke="#9aa3b5" stroke-width="2"/>
  <line x1="120" y1="85" x2="120" y2="115" stroke="#cbd5e1" stroke-width="2"/>
  <line x1="128" y1="85" x2="128" y2="115" stroke="#cbd5e1" stroke-width="2"/>
  <line x1="115" y1="100" x2="145" y2="100" stroke="#9aa3b5" stroke-width="2"/>
  <polygon points="150,100 165,92 165,108" fill="#f4b942"/>
  <line x1="165" y1="100" x2="175" y2="100" stroke="#f4b942" stroke-width="2"/>
  <line x1="175" y1="92" x2="175" y2="108" stroke="#f4b942" stroke-width="3"/>
  <line x1="175" y1="100" x2="230" y2="100" stroke="#9aa3b5" stroke-width="2"/>
  <circle cx="245" cy="100" r="4" fill="#f4b942"/>
  <line x1="245" y1="100" x2="245" y2="155" stroke="#9aa3b5" stroke-width="2"/>
  <line x1="235" y1="155" x2="255" y2="155" stroke="#cbd5e1" stroke-width="2"/>
  <path d="M 245 155 L 245 175 L 320 175" fill="none" stroke="#9aa3b5" stroke-width="2"/>
  <line x1="320" y1="165" x2="320" y2="185" stroke="#cbd5e1" stroke-width="2"/>
  <line x1="328" y1="165" x2="328" y2="185" stroke="#cbd5e1" stroke-width="2"/>
  <text x="350" y="180" fill="#9aa3b5" font-size="11" font-family="system-ui,sans-serif">GND</text>
  <line x1="245" y1="100" x2="400" y2="100" stroke="#3ecf8e" stroke-width="2"/>
  <text x="420" y="105" fill="#3ecf8e" font-size="12" font-family="system-ui,sans-serif">Salida AF</text>
  <text x="270" y="205" text-anchor="middle" fill="#9aa3b5" font-size="11" font-family="system-ui,sans-serif">Diodo + carga RC (detector de envolvente, esquema didactico)</text>
</svg>
