<svg xmlns="http://www.w3.org/2000/svg" width="500" height="250" viewBox="0 0 500 250" role="img" aria-labelledby="q51">
  <title id="q51">Osciloscopio: A marca amplitud en vertical; B marca un periodo en horizontal</title>
  <rect width="500" height="250" fill="#0f1419" rx="10"/>
  <rect x="35" y="45" width="430" height="150" fill="#121722" stroke="#3d4a63" stroke-width="2" rx="6"/>
  <line x1="55" y1="120" x2="445" y2="120" stroke="#3d4a63" stroke-width="1"/>
  <polyline fill="none" stroke="#7eb6ff" stroke-width="2.5"
    points="65,120 85,78 105,48 125,78 145,120 165,162 185,192 205,162 225,120 245,78 265,48 285,78 305,120 325,162 345,192 365,162 385,120 405,78 425,48"/>
  <line x1="400" y1="55" x2="400" y2="185" stroke="#f4b942" stroke-width="2.5"/>
  <polygon points="400,55 395,63 405,63" fill="#f4b942"/>
  <polygon points="400,185 395,177 405,177" fill="#f4b942"/>
  <text x="412" y="125" fill="#f4b942" font-size="16" font-weight="700" font-family="system-ui,sans-serif">A</text>
  <line x1="125" y1="205" x2="305" y2="205" stroke="#f4b942" stroke-width="2.5"/>
  <polygon points="125,205 133,200 133,210" fill="#f4b942"/>
  <polygon points="305,205 297,200 297,210" fill="#f4b942"/>
  <text x="210" y="225" fill="#f4b942" font-size="16" font-weight="700" font-family="system-ui,sans-serif">B</text>
  <text x="250" y="32" text-anchor="middle" fill="#e8ecf4" font-size="14" font-family="system-ui,sans-serif">Pantalla (orientativa)</text>
</svg>
